# 
# Wavefront OBJ file
# Created with Kaydara FBX
# 
mtllib cfx_circular2 #5028.mtl

g CFX_Circular2
v -0.600000 0.000000 0.000000
v -0.600000 -0.050000 0.000000
v -0.588471 -0.050000 0.117054
v -0.588471 0.000000 0.117054
v -0.554328 -0.050000 0.229610
v -0.554328 0.000000 0.229610
v -0.498882 -0.050000 0.333342
v -0.498882 0.000000 0.333342
v -0.424264 -0.050000 0.424264
v -0.424264 0.000000 0.424264
v -0.333342 -0.050000 0.498882
v -0.333342 0.000000 0.498882
v -0.229610 -0.050000 0.554328
v -0.229610 0.000000 0.554328
v -0.117054 -0.050000 0.588471
v -0.117054 0.000000 0.588471
v -0.000000 -0.050000 0.600000
v -0.000000 0.000000 0.600000
v 0.117054 -0.050000 0.588471
v 0.117054 0.000000 0.588471
v 0.117054 0.000000 0.588471
v 0.117054 -0.050000 0.588471
v 0.229610 -0.050000 0.554328
v 0.229610 0.000000 0.554328
v 0.333342 -0.050000 0.498882
v 0.333342 0.000000 0.498882
v 0.424264 -0.050000 0.424264
v 0.424264 0.000000 0.424264
v 0.498882 -0.050000 0.333342
v 0.498882 0.000000 0.333342
v 0.554328 -0.050000 0.229610
v 0.554328 0.000000 0.229610
v 0.588471 -0.050000 0.117054
v 0.588471 0.000000 0.117054
v 0.600000 -0.050000 -0.000000
v 0.600000 -0.000000 -0.000000
v 0.588471 -0.050000 -0.117054
v 0.588471 -0.000000 -0.117054
v 0.554328 -0.050000 -0.229610
v 0.554328 -0.000000 -0.229610
v 0.498882 -0.050000 -0.333342
v 0.498882 -0.000000 -0.333342
v 0.424264 -0.050000 -0.424264
v 0.424264 -0.000000 -0.424264
v 0.333342 -0.050000 -0.498882
v 0.333342 -0.000000 -0.498882
v 0.229610 -0.050000 -0.554328
v 0.229610 -0.000000 -0.554328
v 0.117054 -0.050000 -0.588471
v 0.117054 -0.000000 -0.588471
v -0.000001 -0.050000 -0.600000
v -0.000001 -0.000000 -0.600000
v -0.117055 -0.050000 -0.588471
v -0.117055 -0.000000 -0.588471
v -0.229611 -0.050000 -0.554327
v -0.229611 -0.000000 -0.554327
v -0.333343 -0.050000 -0.498881
v -0.333343 -0.000000 -0.498881
v -0.424265 -0.050000 -0.424264
v -0.424265 -0.000000 -0.424264
v -0.498882 -0.050000 -0.333341
v -0.498882 -0.000000 -0.333341
v -0.554328 -0.050000 -0.229609
v -0.554328 -0.000000 -0.229609
v -0.588471 -0.050000 -0.117053
v -0.588471 -0.000000 -0.117053
vt 0.750000 0.000000
vt 0.750000 1.000000
vt 0.781250 1.000000
vt 0.781250 0.000000
vt 0.812500 1.000000
vt 0.812500 0.000000
vt 0.843750 1.000000
vt 0.843750 0.000000
vt 0.875000 1.000000
vt 0.875000 0.000000
vt 0.906250 1.000000
vt 0.906250 0.000000
vt 0.937500 1.000000
vt 0.937500 0.000000
vt 0.968750 1.000000
vt 0.968750 0.000000
vt 1.000000 1.000000
vt 1.000000 0.000000
vt 1.031250 1.000000
vt 1.031250 0.000000
vt 0.031250 0.000000
vt 0.031250 1.000000
vt 0.062500 1.000000
vt 0.062500 0.000000
vt 0.093750 1.000000
vt 0.093750 0.000000
vt 0.125000 1.000000
vt 0.125000 0.000000
vt 0.156250 1.000000
vt 0.156250 0.000000
vt 0.187500 1.000000
vt 0.187500 0.000000
vt 0.218750 1.000000
vt 0.218750 0.000000
vt 0.250000 1.000000
vt 0.250000 0.000000
vt 0.281250 1.000000
vt 0.281250 0.000000
vt 0.312500 1.000000
vt 0.312500 0.000000
vt 0.343750 1.000000
vt 0.343750 0.000000
vt 0.375000 1.000000
vt 0.375000 0.000000
vt 0.406250 1.000000
vt 0.406250 0.000000
vt 0.437500 1.000000
vt 0.437500 0.000000
vt 0.468750 1.000000
vt 0.468750 0.000000
vt 0.500000 1.000000
vt 0.500000 0.000000
vt 0.531250 1.000000
vt 0.531250 0.000000
vt 0.562500 1.000000
vt 0.562500 0.000000
vt 0.593750 1.000000
vt 0.593750 0.000000
vt 0.625000 1.000000
vt 0.625000 0.000000
vt 0.656250 1.000000
vt 0.656250 0.000000
vt 0.687500 1.000000
vt 0.687500 0.000000
vt 0.718750 1.000000
vt 0.718750 0.000000
vn -1.000000 0.000000 0.000000
vn -1.000000 0.000000 0.000000
vn -0.980785 0.000000 0.195090
vn -0.980785 0.000000 0.195090
vn -0.923879 0.000000 0.382684
vn -0.923879 0.000000 0.382684
vn -0.831470 0.000000 0.555570
vn -0.831470 0.000000 0.555570
vn -0.707107 0.000000 0.707107
vn -0.707107 0.000000 0.707107
vn -0.555570 0.000000 0.831470
vn -0.555570 0.000000 0.831470
vn -0.382683 0.000000 0.923880
vn -0.382683 0.000000 0.923880
vn -0.195090 0.000000 0.980785
vn -0.195090 0.000000 0.980785
vn -0.000000 0.000000 1.000000
vn -0.000000 0.000000 1.000000
vn 0.195090 0.000000 0.980785
vn 0.195090 0.000000 0.980785
vn 0.195090 0.000000 0.980785
vn 0.195090 0.000000 0.980785
vn 0.382683 0.000000 0.923880
vn 0.382683 0.000000 0.923880
vn 0.555570 0.000000 0.831470
vn 0.555570 0.000000 0.831470
vn 0.707107 0.000000 0.707107
vn 0.707107 0.000000 0.707107
vn 0.831470 0.000000 0.555570
vn 0.831470 0.000000 0.555570
vn 0.923880 0.000000 0.382683
vn 0.923880 0.000000 0.382683
vn 0.980785 0.000000 0.195090
vn 0.980785 0.000000 0.195090
vn 1.000000 0.000000 -0.000000
vn 1.000000 0.000000 -0.000000
vn 0.980785 0.000000 -0.195091
vn 0.980785 0.000000 -0.195091
vn 0.923879 0.000000 -0.382684
vn 0.923879 0.000000 -0.382684
vn 0.831469 0.000000 -0.555571
vn 0.831469 0.000000 -0.555571
vn 0.707106 0.000000 -0.707107
vn 0.707106 0.000000 -0.707107
vn 0.555570 0.000000 -0.831470
vn 0.555570 0.000000 -0.831470
vn 0.382683 0.000000 -0.923880
vn 0.382683 0.000000 -0.923880
vn 0.195090 0.000000 -0.980785
vn 0.195090 0.000000 -0.980785
vn -0.000001 0.000000 -1.000000
vn -0.000001 0.000000 -1.000000
vn -0.195091 0.000000 -0.980785
vn -0.195091 0.000000 -0.980785
vn -0.382684 0.000000 -0.923879
vn -0.382684 0.000000 -0.923879
vn -0.555571 0.000000 -0.831469
vn -0.555571 0.000000 -0.831469
vn -0.707108 0.000000 -0.707106
vn -0.707108 0.000000 -0.707106
vn -0.831470 0.000000 -0.555569
vn -0.831470 0.000000 -0.555569
vn -0.923880 0.000000 -0.382682
vn -0.923880 0.000000 -0.382682
vn -0.980785 0.000000 -0.195089
vn -0.980785 0.000000 -0.195089
usemtl material
f 1/0/1 2/0/2 3/0/3
f 1/0/1 3/0/3 4/0/4
f 4/0/4 3/0/3 5/0/5
f 4/0/4 5/0/5 6/0/6
f 6/0/6 5/0/5 7/0/7
f 6/0/6 7/0/7 8/0/8
f 8/0/8 7/0/7 9/0/9
f 8/0/8 9/0/9 10/0/10
f 10/0/10 9/0/9 11/0/11
f 10/0/10 11/0/11 12/0/12
f 12/0/12 11/0/11 13/0/13
f 12/0/12 13/0/13 14/0/14
f 14/0/14 13/0/13 15/0/15
f 14/0/14 15/0/15 16/0/16
f 16/0/16 15/0/15 17/0/17
f 16/0/16 17/0/17 18/0/18
f 18/0/18 17/0/17 19/0/19
f 18/0/18 19/0/19 20/0/20
f 21/0/21 22/0/22 23/0/23
f 21/0/21 23/0/23 24/0/24
f 24/0/24 23/0/23 25/0/25
f 24/0/24 25/0/25 26/0/26
f 26/0/26 25/0/25 27/0/27
f 26/0/26 27/0/27 28/0/28
f 28/0/28 27/0/27 29/0/29
f 28/0/28 29/0/29 30/0/30
f 30/0/30 29/0/29 31/0/31
f 30/0/30 31/0/31 32/0/32
f 32/0/32 31/0/31 33/0/33
f 32/0/32 33/0/33 34/0/34
f 34/0/34 33/0/33 35/0/35
f 34/0/34 35/0/35 36/0/36
f 36/0/36 35/0/35 37/0/37
f 36/0/36 37/0/37 38/0/38
f 38/0/38 37/0/37 39/0/39
f 38/0/38 39/0/39 40/0/40
f 40/0/40 39/0/39 41/0/41
f 40/0/40 41/0/41 42/0/42
f 42/0/42 41/0/41 43/0/43
f 42/0/42 43/0/43 44/0/44
f 44/0/44 43/0/43 45/0/45
f 44/0/44 45/0/45 46/0/46
f 46/0/46 45/0/45 47/0/47
f 46/0/46 47/0/47 48/0/48
f 48/0/48 47/0/47 49/0/49
f 48/0/48 49/0/49 50/0/50
f 50/0/50 49/0/49 51/0/51
f 50/0/50 51/0/51 52/0/52
f 52/0/52 51/0/51 53/0/53
f 52/0/52 53/0/53 54/0/54
f 54/0/54 53/0/53 55/0/55
f 54/0/54 55/0/55 56/0/56
f 56/0/56 55/0/55 57/0/57
f 56/0/56 57/0/57 58/0/58
f 58/0/58 57/0/57 59/0/59
f 58/0/58 59/0/59 60/0/60
f 60/0/60 59/0/59 61/0/61
f 60/0/60 61/0/61 62/0/62
f 62/0/62 61/0/61 63/0/63
f 62/0/62 63/0/63 64/0/64
f 64/0/64 63/0/63 65/0/65
f 64/0/64 65/0/65 66/0/66
f 66/0/66 65/0/65 2/0/2
f 66/0/66 2/0/2 1/0/1
