# 
# Wavefront OBJ file
# Created with Kaydara FBX
# 
mtllib gj_mx_luoxuanxian01 #0415.mtl

g gj_mx_luoxuanxian01
v -0.065036 -0.387271 0.261039
v -0.222439 -0.472943 0.513421
v -0.202540 -0.317565 0.155852
v -0.390530 -0.386129 0.384377
v -0.034807 -0.488949 0.644268
v 0.087997 -0.398635 0.367596
v 0.133149 -0.437846 0.768374
v 0.245401 -0.350379 0.483997
v 0.262308 -0.330836 0.889249
v 0.376304 -0.240933 0.606983
v 0.337708 -0.188469 1.007487
v 0.458578 -0.085625 0.735961
v 0.348681 -0.041348 1.117984
v 0.473115 0.101078 0.876306
v 0.306741 0.089259 1.222635
v 0.409685 0.286325 1.026091
v 0.211009 0.193478 1.333086
v 0.280852 0.425329 1.173990
v 0.097305 0.242184 1.431854
v 0.093070 0.506673 1.337530
v -0.022340 0.242048 1.529371
v -0.113449 0.501767 1.506417
v 0.057770 0.344004 0.216886
v 0.197587 0.420104 0.426579
v 0.179912 0.282086 0.129490
v 0.346898 0.342989 0.319362
v 0.030918 0.434322 0.535294
v -0.078166 0.354098 0.305419
v -0.118274 0.388929 0.638408
v -0.217984 0.311234 0.402131
v -0.233002 0.293874 0.738837
v -0.334262 0.214015 0.504315
v -0.299979 0.167412 0.837076
v -0.407344 0.076058 0.611477
v -0.309725 0.036729 0.928882
v -0.420257 -0.089785 0.728084
v -0.272471 -0.079287 1.015833
v -0.363914 -0.254336 0.852533
v -0.187434 -0.171862 1.107602
v -0.249475 -0.377810 0.975416
v -0.086434 -0.215127 1.189663
v -0.082672 -0.450066 1.111294
v 0.019844 -0.215006 1.270686
v 0.100774 -0.445708 1.251615
vt 0.100000 1.000000
vt 0.100000 0.000000
vt -0.000000 1.000000
vt 0.000000 0.000000
vt 0.200000 0.000000
vt 0.200000 1.000000
vt 0.300000 0.000000
vt 0.300000 1.000000
vt 0.400000 0.000000
vt 0.400000 1.000000
vt 0.500000 0.000000
vt 0.500000 1.000000
vt 0.600000 0.000000
vt 0.600000 1.000000
vt 0.700000 0.000000
vt 0.700000 1.000000
vt 0.800000 0.000000
vt 0.800000 1.000000
vt 0.900000 0.000000
vt 0.900000 1.000000
vt 1.000000 0.000000
vt 1.000000 1.000000
vt 0.100000 1.000000
vt 0.100000 0.000000
vt -0.000000 1.000000
vt 0.000000 0.000000
vt 0.200000 0.000000
vt 0.200000 1.000000
vt 0.300000 0.000000
vt 0.300000 1.000000
vt 0.400000 0.000000
vt 0.400000 1.000000
vt 0.500000 0.000000
vt 0.500000 1.000000
vt 0.600000 0.000000
vt 0.600000 1.000000
vt 0.700000 0.000000
vt 0.700000 1.000000
vt 0.800000 0.000000
vt 0.800000 1.000000
vt 0.900000 0.000000
vt 0.900000 1.000000
vt 1.000000 0.000000
vt 1.000000 1.000000
vn -0.032260 -0.939459 -0.341141
vn -0.016329 -0.944041 -0.329423
vn -0.154135 -0.903027 -0.400979
vn -0.158256 -0.902344 -0.400912
vn 0.258705 -0.946582 -0.192493
vn 0.233707 -0.950067 -0.206767
vn 0.525170 -0.849309 -0.053577
vn 0.499349 -0.863628 -0.069268
vn 0.743462 -0.662702 0.089943
vn 0.724575 -0.685167 0.074413
vn 0.879532 -0.413913 0.234733
vn 0.867818 -0.446695 0.217615
vn 0.913267 -0.164159 0.372821
vn 0.914665 -0.184109 0.359851
vn 0.860083 0.052759 0.507419
vn 0.865443 0.046150 0.498878
vn 0.750871 0.204143 0.628107
vn 0.761186 0.194771 0.618595
vn 0.650533 0.264769 0.711831
vn 0.653383 0.264091 0.709469
vn 0.605695 0.276687 0.746042
vn 0.604144 0.277937 0.746834
vn 0.027326 0.932900 -0.359097
vn 0.020325 0.935836 -0.351850
vn 0.152416 0.892818 -0.423846
vn 0.156468 0.892150 -0.423777
vn -0.253354 0.944819 -0.207673
vn -0.237947 0.946538 -0.217824
vn -0.520433 0.851786 -0.060083
vn -0.504037 0.860746 -0.071154
vn -0.739679 0.666465 0.093269
vn -0.727666 0.680974 0.082319
vn -0.874477 0.417384 0.247144
vn -0.866549 0.440541 0.234557
vn -0.904651 0.166857 0.392129
vn -0.906125 0.178426 0.383537
vn -0.846333 -0.048625 0.530430
vn -0.849074 -0.047936 0.526094
vn -0.732209 -0.197179 0.651913
vn -0.739858 -0.190794 0.645142
vn -0.628986 -0.255486 0.734237
vn -0.630396 -0.255247 0.733110
vn -0.582967 -0.266273 0.767625
vn -0.581403 -0.267475 0.768393
usemtl material
f 1/0/1 2/0/2 3/0/3
f 4/0/4 3/0/3 2/0/2
f 2/0/2 1/0/1 5/0/5
f 6/0/6 5/0/5 1/0/1
f 5/0/5 6/0/6 7/0/7
f 8/0/8 7/0/7 6/0/6
f 7/0/7 8/0/8 9/0/9
f 10/0/10 9/0/9 8/0/8
f 9/0/9 10/0/10 11/0/11
f 12/0/12 11/0/11 10/0/10
f 11/0/11 12/0/12 13/0/13
f 14/0/14 13/0/13 12/0/12
f 13/0/13 14/0/14 15/0/15
f 16/0/16 15/0/15 14/0/14
f 15/0/15 16/0/16 17/0/17
f 18/0/18 17/0/17 16/0/16
f 17/0/17 18/0/18 19/0/19
f 20/0/20 19/0/19 18/0/18
f 19/0/19 20/0/20 21/0/21
f 22/0/22 21/0/21 20/0/20
f 23/0/23 24/0/24 25/0/25
f 26/0/26 25/0/25 24/0/24
f 24/0/24 23/0/23 27/0/27
f 28/0/28 27/0/27 23/0/23
f 27/0/27 28/0/28 29/0/29
f 30/0/30 29/0/29 28/0/28
f 29/0/29 30/0/30 31/0/31
f 32/0/32 31/0/31 30/0/30
f 31/0/31 32/0/32 33/0/33
f 34/0/34 33/0/33 32/0/32
f 33/0/33 34/0/34 35/0/35
f 36/0/36 35/0/35 34/0/34
f 35/0/35 36/0/36 37/0/37
f 38/0/38 37/0/37 36/0/36
f 37/0/37 38/0/38 39/0/39
f 40/0/40 39/0/39 38/0/38
f 39/0/39 40/0/40 41/0/41
f 42/0/42 41/0/41 40/0/40
f 41/0/41 42/0/42 43/0/43
f 44/0/44 43/0/43 42/0/42
