# 
# Wavefront OBJ file
# Created with Kaydara FBX
# 
mtllib shield.mtl

g shield
v 0.065634 -0.086024 -0.340896
v 0.000000 -0.087712 -0.355934
v 0.000000 -0.061208 -0.377452
v 0.069507 -0.059674 -0.361285
v -0.069507 -0.059674 -0.361285
v -0.065634 -0.086024 -0.340896
v 0.000000 -0.035865 -0.378649
v 0.069705 -0.033552 -0.362324
v 0.000000 -0.001583 -0.355934
v 0.065634 0.000105 -0.340896
v -0.065634 0.000105 -0.340896
v -0.069705 -0.033552 -0.362324
v 0.262510 -0.098589 0.357836
v 0.277478 -0.078787 0.377945
v 0.124074 -0.000867 0.352433
v 0.116918 -0.030803 0.331848
v 0.000000 0.011537 0.369474
v 0.000000 -0.020224 0.349964
v -0.124074 -0.000867 0.352433
v -0.116918 -0.030803 0.331848
v -0.277478 -0.078787 0.377945
v -0.262510 -0.098589 0.357836
v 0.123737 0.026160 0.351464
v 0.000000 0.037899 0.368976
v 0.116918 0.055326 0.331848
v 0.000000 0.065904 0.349964
v 0.278003 -0.050340 0.378649
v 0.262510 -0.012461 0.357836
v -0.116918 0.055326 0.331848
v -0.123737 0.026160 0.351464
v -0.278003 -0.050340 0.378649
v -0.262510 -0.012461 0.357836
v -0.271330 -0.045720 0.245247
v -0.278003 -0.050340 0.378649
v -0.272127 -0.017735 0.245960
v 0.272127 -0.017735 0.245960
v 0.000000 -0.087712 -0.355934
v 0.065634 -0.086024 -0.340896
v 0.088019 -0.049318 -0.231867
v 0.000000 -0.041945 -0.235600
v 0.116918 -0.025163 -0.116161
v 0.000000 -0.010032 -0.116161
v -0.000000 0.007306 -0.004974
v -0.129917 -0.011377 -0.004974
v -0.116918 -0.025163 -0.116161
v 0.129917 -0.011377 -0.004974
v 0.233835 -0.070557 -0.116161
v 0.259834 -0.067426 -0.004974
v 0.129660 -0.006148 0.105426
v 0.000000 0.012461 0.105426
v 0.000000 0.001920 0.241327
v 0.126578 -0.012239 0.214517
v -0.126578 -0.012239 0.214517
v -0.129660 -0.006148 0.105426
v -0.259834 -0.067426 -0.004974
v -0.259320 -0.061975 0.105426
v 0.116918 -0.030803 0.331848
v 0.000000 -0.020224 0.349964
v 0.256699 -0.069712 0.232158
v 0.262510 -0.098589 0.357836
v -0.116918 -0.030803 0.331848
v -0.256699 -0.069712 0.232158
v -0.262510 -0.098589 0.357836
v 0.259320 -0.061975 0.105426
v -0.233835 -0.070557 -0.116161
v -0.176039 -0.073855 -0.228135
v -0.088019 -0.049318 -0.231867
v -0.065634 -0.086024 -0.340896
v -0.065634 -0.086024 -0.340896
v -0.176039 -0.073855 -0.228135
v -0.186263 -0.047120 -0.241525
v -0.069507 -0.059674 -0.361285
v -0.247236 -0.044444 -0.122881
v -0.233835 -0.070557 -0.116161
v -0.274637 -0.041754 -0.005293
v -0.259834 -0.067426 -0.004974
v -0.274133 -0.036243 0.111391
v -0.259320 -0.061975 0.105426
v -0.271330 -0.045720 0.245247
v -0.256699 -0.069712 0.232158
v -0.277478 -0.078787 0.377945
v -0.262510 -0.098589 0.357836
v -0.275667 -0.014111 -0.005315
v -0.248034 -0.016821 -0.123281
v -0.259834 0.018703 -0.004974
v -0.275115 -0.008659 0.111787
v -0.259320 0.024154 0.105426
v -0.233835 0.015572 -0.116161
v -0.176039 0.012273 -0.228135
v -0.186733 -0.019852 -0.242141
v -0.069705 -0.033552 -0.362324
v -0.065634 0.000105 -0.340896
v -0.256699 0.016416 0.232158
v -0.272127 -0.017735 0.245960
v -0.278003 -0.050340 0.378649
v -0.262510 -0.012461 0.357836
v -0.069507 -0.059674 -0.361285
v -0.069705 -0.033552 -0.362324
v -0.186263 -0.047120 -0.241525
v -0.186733 -0.019852 -0.242141
v -0.065634 0.000105 -0.340896
v -0.088019 0.036811 -0.231867
v 0.000000 0.044184 -0.235600
v 0.000000 -0.001583 -0.355934
v -0.116918 0.060965 -0.116161
v 0.000000 0.076096 -0.116161
v -0.000000 0.093434 -0.004974
v 0.129917 0.074751 -0.004974
v 0.116918 0.060965 -0.116161
v -0.129917 0.074751 -0.004974
v -0.233835 0.015572 -0.116161
v -0.259834 0.018703 -0.004974
v -0.129660 0.079981 0.105426
v 0.000000 0.098589 0.105426
v 0.259834 0.018703 -0.004974
v 0.129660 0.079980 0.105426
v 0.126578 0.073890 0.214517
v 0.000000 0.088049 0.241327
v 0.259320 0.024154 0.105426
v 0.116918 0.055326 0.331848
v 0.256699 0.016416 0.232158
v 0.262510 -0.012461 0.357836
v 0.000000 0.065904 0.349964
v -0.116918 0.055326 0.331848
v -0.126578 0.073890 0.214517
v -0.259320 0.024154 0.105426
v -0.256699 0.016416 0.232158
v -0.262510 -0.012461 0.357836
v 0.233835 0.015572 -0.116161
v 0.176039 0.012273 -0.228135
v 0.088019 0.036811 -0.231867
v 0.065634 0.000105 -0.340896
v 0.065634 0.000105 -0.340896
v 0.176039 0.012273 -0.228135
v 0.186733 -0.019852 -0.242141
v 0.069705 -0.033552 -0.362324
v 0.248034 -0.016821 -0.123281
v 0.233835 0.015572 -0.116161
v 0.275667 -0.014111 -0.005315
v 0.259834 0.018703 -0.004974
v 0.275115 -0.008659 0.111787
v 0.259320 0.024154 0.105426
v 0.272127 -0.017735 0.245960
v 0.256699 0.016416 0.232158
v 0.278003 -0.050340 0.378649
v 0.262510 -0.012461 0.357836
v 0.274637 -0.041754 -0.005293
v 0.247236 -0.044444 -0.122881
v 0.259834 -0.067426 -0.004974
v 0.274133 -0.036243 0.111391
v 0.259320 -0.061975 0.105426
v 0.233835 -0.070557 -0.116161
v 0.176039 -0.073855 -0.228135
v 0.186263 -0.047120 -0.241525
v 0.069507 -0.059674 -0.361285
v 0.065634 -0.086024 -0.340896
v 0.256699 -0.069712 0.232158
v 0.271330 -0.045720 0.245247
v 0.277478 -0.078787 0.377945
v 0.262510 -0.098589 0.357836
v 0.176039 -0.073855 -0.228135
v -0.176039 0.012273 -0.228135
v 0.069705 -0.033552 -0.362324
v 0.186733 -0.019852 -0.242141
v 0.186263 -0.047120 -0.241525
v 0.069507 -0.059674 -0.361285
v 0.277478 -0.078787 0.377945
v 0.271330 -0.045720 0.245247
v 0.272127 -0.017735 0.245960
vt 1.000000 0.000000
vt 0.500000 0.000000
vt 0.500000 0.342384
vt 1.000000 0.338882
vt 0.000000 0.338882
vt 0.000000 0.000000
vt 0.500000 0.638565
vt 1.000000 0.643851
vt 0.500000 1.000000
vt 1.000000 1.000000
vt 0.000000 1.000000
vt 0.000000 0.643851
vt 0.000000 0.000000
vt 0.000000 0.327409
vt 0.250000 0.351467
vt 0.250000 0.000000
vt 0.500000 0.351217
vt 0.500000 0.000000
vt 0.750000 0.351467
vt 0.750000 0.000000
vt 1.000000 0.327409
vt 1.000000 0.000000
vt 0.250000 0.665077
vt 0.500000 0.657749
vt 0.250000 1.000000
vt 0.500000 1.000000
vt 0.000000 0.661117
vt 0.000000 1.000000
vt 0.750000 1.000000
vt 0.750000 0.665077
vt 1.000000 0.661117
vt 1.000000 1.000000
vt 0.327292 0.833333
vt 1.000000 0.661117
vt 0.654872 0.833333
vt 0.345128 0.833333
vt 0.500000 0.000000
vt 0.000000 0.000000
vt 0.250000 0.166667
vt 0.500000 0.166667
vt 0.250000 0.333333
vt 0.500000 0.333333
vt 0.500000 0.500000
vt 0.750000 0.500000
vt 0.750000 0.333333
vt 0.250000 0.500000
vt 0.000000 0.333333
vt 0.000000 0.500000
vt 0.250000 0.666667
vt 0.500000 0.666667
vt 0.500000 0.833333
vt 0.250000 0.833333
vt 0.750000 0.833333
vt 0.750000 0.666667
vt 1.000000 0.500000
vt 1.000000 0.666667
vt 0.250000 1.000000
vt 0.500000 1.000000
vt 0.000000 0.833333
vt 0.000000 1.000000
vt 0.750000 1.000000
vt 1.000000 0.833333
vt 1.000000 1.000000
vt 0.000000 0.666667
vt 1.000000 0.333333
vt 1.000000 0.166667
vt 0.750000 0.166667
vt 1.000000 0.000000
vt 0.000000 0.000000
vt 0.000000 0.166667
vt 0.333496 0.166667
vt 0.338882 0.000000
vt 0.329077 0.333333
vt 0.000000 0.333333
vt 0.327128 0.500000
vt 0.000000 0.500000
vt 0.328015 0.666667
vt 0.000000 0.666667
vt 0.327292 0.833333
vt 0.000000 0.833333
vt 0.327409 1.000000
vt 0.000000 1.000000
vt 0.650099 0.500000
vt 0.651337 0.333333
vt 1.000000 0.500000
vt 0.650230 0.666667
vt 1.000000 0.666667
vt 1.000000 0.333333
vt 1.000000 0.166667
vt 0.651161 0.166667
vt 0.643851 0.000000
vt 1.000000 0.000000
vt 1.000000 0.833333
vt 0.654872 0.833333
vt 0.661117 1.000000
vt 1.000000 1.000000
vt 0.000000 0.338882
vt 0.000000 0.643851
vt 0.333496 0.166667
vt 0.651161 0.166667
vt 0.000000 0.000000
vt 0.250000 0.166667
vt 0.500000 0.166667
vt 0.500000 0.000000
vt 0.250000 0.333333
vt 0.500000 0.333333
vt 0.500000 0.500000
vt 0.750000 0.500000
vt 0.750000 0.333333
vt 0.250000 0.500000
vt 0.000000 0.333333
vt 0.000000 0.500000
vt 0.250000 0.666667
vt 0.500000 0.666667
vt 1.000000 0.500000
vt 0.750000 0.666667
vt 0.750000 0.833333
vt 0.500000 0.833333
vt 1.000000 0.666667
vt 0.750000 1.000000
vt 1.000000 0.833333
vt 1.000000 1.000000
vt 0.500000 1.000000
vt 0.250000 1.000000
vt 0.250000 0.833333
vt 0.000000 0.666667
vt 0.000000 0.833333
vt 0.000000 1.000000
vt 1.000000 0.333333
vt 1.000000 0.166667
vt 0.750000 0.166667
vt 1.000000 0.000000
vt 0.000000 0.000000
vt 0.000000 0.166667
vt 0.348839 0.166667
vt 0.356149 0.000000
vt 0.348663 0.333333
vt 0.000000 0.333333
vt 0.349901 0.500000
vt 0.000000 0.500000
vt 0.349770 0.666667
vt 0.000000 0.666667
vt 0.345128 0.833333
vt 0.000000 0.833333
vt 0.338883 1.000000
vt 0.000000 1.000000
vt 0.672872 0.500000
vt 0.670923 0.333333
vt 1.000000 0.500000
vt 0.671985 0.666667
vt 1.000000 0.666667
vt 1.000000 0.333333
vt 1.000000 0.166667
vt 0.666504 0.166667
vt 0.661118 0.000000
vt 1.000000 0.000000
vt 1.000000 0.833333
vt 0.672708 0.833333
vt 0.672591 1.000000
vt 1.000000 1.000000
vt 0.000000 0.166667
vt 0.000000 0.166667
vt 1.000000 0.643851
vt 0.348839 0.166667
vt 0.666504 0.166667
vt 1.000000 0.338882
vt 0.000000 0.327409
vt 0.672708 0.833333
vt 0.345128 0.833333
vn 0.248690 -0.925264 -0.286427
vn 0.000000 -0.941772 -0.336252
vn 0.000000 -0.344400 -0.938823
vn 0.466549 -0.321004 -0.824189
vn -0.466549 -0.321004 -0.824190
vn -0.248690 -0.925264 -0.286427
vn 0.000000 0.250614 -0.968087
vn 0.456096 0.241772 -0.856460
vn 0.000000 0.761065 -0.648676
vn 0.309691 0.736585 -0.601278
vn -0.309691 0.736585 -0.601278
vn -0.456096 0.241772 -0.856460
vn 0.199548 -0.939155 0.279586
vn 0.574032 -0.423631 0.700731
vn -0.093456 -0.244418 0.965156
vn -0.251893 -0.897868 0.361087
vn 0.000000 -0.250078 0.968226
vn 0.000000 -0.894072 0.447923
vn 0.093456 -0.244418 0.965156
vn 0.251892 -0.897868 0.361087
vn -0.574033 -0.423631 0.700731
vn -0.199548 -0.939155 0.279586
vn 0.088688 0.334819 0.938100
vn 0.000000 0.322166 0.946683
vn 0.227518 0.838890 0.494469
vn 0.000000 0.831041 0.556211
vn 0.656097 0.208548 0.725289
vn 0.563776 0.678982 0.470255
vn -0.227518 0.838890 0.494469
vn -0.088688 0.334819 0.938099
vn -0.656097 0.208549 0.725289
vn -0.563776 0.678982 0.470255
vn -0.965673 -0.253132 -0.058310
vn -0.656097 0.208549 0.725289
vn -0.976017 0.216429 0.023434
vn 0.976017 0.216429 0.023434
vn 0.000000 -0.941772 -0.336252
vn 0.248690 -0.925264 -0.286427
vn -0.191348 -0.935957 0.295586
vn 0.000000 -0.955232 0.295859
vn -0.239871 -0.952118 0.189561
vn 0.000000 -0.980787 0.195081
vn 0.000000 -0.995354 0.096287
vn 0.268277 -0.958852 0.092899
vn 0.239871 -0.952118 0.189561
vn -0.268277 -0.958852 0.092899
vn 0.354406 -0.930519 -0.092365
vn 0.359983 -0.932948 -0.004487
vn -0.269347 -0.962983 -0.010745
vn 0.000000 -0.999936 -0.011275
vn 0.000000 -0.991086 -0.133227
vn -0.265068 -0.956905 -0.118627
vn 0.265068 -0.956905 -0.118627
vn 0.269347 -0.962983 -0.010745
vn -0.359983 -0.932948 -0.004487
vn -0.323150 -0.946348 -0.000519
vn -0.251893 -0.897868 0.361087
vn 0.000000 -0.894072 0.447923
vn 0.317539 -0.938655 -0.134522
vn 0.199548 -0.939155 0.279586
vn 0.251892 -0.897868 0.361087
vn -0.317538 -0.938655 -0.134522
vn -0.199548 -0.939155 0.279586
vn 0.323151 -0.946347 -0.000519
vn -0.354406 -0.930519 -0.092364
vn -0.322077 -0.931065 -0.171421
vn 0.191348 -0.935957 0.295586
vn -0.248690 -0.925264 -0.286427
vn -0.248690 -0.925264 -0.286427
vn -0.322077 -0.931065 -0.171421
vn -0.785409 -0.272095 -0.555965
vn -0.466549 -0.321004 -0.824190
vn -0.905996 -0.266764 -0.328646
vn -0.354406 -0.930519 -0.092364
vn -0.957324 -0.272189 -0.097174
vn -0.359983 -0.932948 -0.004487
vn -0.963224 -0.268559 0.008682
vn -0.323150 -0.946348 -0.000519
vn -0.965673 -0.253132 -0.058310
vn -0.317538 -0.938655 -0.134522
vn -0.574033 -0.423631 0.700731
vn -0.199548 -0.939155 0.279586
vn -0.973054 0.199528 -0.115565
vn -0.915959 0.206071 -0.344315
vn -0.698293 0.707347 -0.109754
vn -0.976794 0.213552 0.016416
vn -0.687165 0.726410 0.011527
vn -0.651573 0.710761 -0.265086
vn -0.550791 0.717587 -0.426261
vn -0.779682 0.226058 -0.583947
vn -0.456096 0.241772 -0.856460
vn -0.309691 0.736585 -0.601278
vn -0.677344 0.728981 0.098955
vn -0.976017 0.216429 0.023434
vn -0.656097 0.208549 0.725289
vn -0.563776 0.678982 0.470255
vn -0.466549 -0.321004 -0.824190
vn -0.456096 0.241772 -0.856460
vn -0.785409 -0.272095 -0.555965
vn -0.779682 0.226058 -0.583947
vn -0.309691 0.736585 -0.601278
vn -0.191348 0.935957 -0.295586
vn 0.000000 0.955232 -0.295859
vn 0.000000 0.761065 -0.648676
vn -0.239871 0.952118 -0.189561
vn 0.000000 0.980787 -0.195081
vn 0.000000 0.995354 -0.096287
vn 0.268277 0.958852 -0.092899
vn 0.239871 0.952118 -0.189561
vn -0.268277 0.958852 -0.092899
vn -0.651573 0.710761 -0.265086
vn -0.698293 0.707347 -0.109754
vn -0.269347 0.962983 0.010745
vn 0.000000 0.999936 0.011275
vn 0.698293 0.707347 -0.109754
vn 0.269347 0.962983 0.010745
vn 0.265068 0.956905 0.118627
vn 0.000000 0.991086 0.133227
vn 0.687165 0.726410 0.011527
vn 0.227518 0.838890 0.494469
vn 0.677344 0.728981 0.098955
vn 0.563776 0.678982 0.470255
vn 0.000000 0.831041 0.556211
vn -0.227518 0.838890 0.494469
vn -0.265068 0.956905 0.118627
vn -0.687165 0.726410 0.011527
vn -0.677344 0.728981 0.098955
vn -0.563776 0.678982 0.470255
vn 0.651573 0.710761 -0.265086
vn 0.550791 0.717587 -0.426261
vn 0.191348 0.935957 -0.295586
vn 0.309691 0.736585 -0.601278
vn 0.309691 0.736585 -0.601278
vn 0.550791 0.717587 -0.426261
vn 0.779682 0.226058 -0.583947
vn 0.456096 0.241772 -0.856460
vn 0.915959 0.206071 -0.344315
vn 0.651573 0.710761 -0.265086
vn 0.973054 0.199528 -0.115565
vn 0.698293 0.707347 -0.109754
vn 0.976794 0.213552 0.016416
vn 0.687165 0.726410 0.011527
vn 0.976017 0.216429 0.023434
vn 0.677344 0.728981 0.098955
vn 0.656097 0.208548 0.725289
vn 0.563776 0.678982 0.470255
vn 0.957325 -0.272189 -0.097174
vn 0.905996 -0.266763 -0.328646
vn 0.359983 -0.932948 -0.004487
vn 0.963224 -0.268559 0.008682
vn 0.323151 -0.946347 -0.000519
vn 0.354406 -0.930519 -0.092365
vn 0.322077 -0.931065 -0.171421
vn 0.785409 -0.272094 -0.555965
vn 0.466549 -0.321004 -0.824189
vn 0.248690 -0.925264 -0.286427
vn 0.317539 -0.938655 -0.134522
vn 0.965673 -0.253131 -0.058310
vn 0.574032 -0.423631 0.700731
vn 0.199548 -0.939155 0.279586
vn 0.322077 -0.931065 -0.171421
vn -0.550791 0.717587 -0.426261
vn 0.456096 0.241772 -0.856460
vn 0.779682 0.226058 -0.583947
vn 0.785409 -0.272094 -0.555965
vn 0.466549 -0.321004 -0.824189
vn 0.574032 -0.423631 0.700731
vn 0.965673 -0.253131 -0.058310
vn 0.976017 0.216429 0.023434
usemtl material
f 1/0/1 2/0/2 3/0/3
f 1/0/1 3/0/3 4/0/4
f 2/0/2 5/0/5 3/0/3
f 2/0/2 6/0/6 5/0/5
f 4/0/4 3/0/3 7/0/7
f 4/0/4 7/0/7 8/0/8
f 8/0/8 7/0/7 9/0/9
f 8/0/8 9/0/9 10/0/10
f 7/0/7 11/0/11 9/0/9
f 7/0/7 12/0/12 11/0/11
f 3/0/3 5/0/5 12/0/12
f 3/0/3 12/0/12 7/0/7
f 13/0/13 14/0/14 15/0/15
f 13/0/13 15/0/15 16/0/16
f 16/0/16 15/0/15 17/0/17
f 16/0/16 17/0/17 18/0/18
f 18/0/18 17/0/17 19/0/19
f 18/0/18 19/0/19 20/0/20
f 20/0/20 19/0/19 21/0/21
f 20/0/20 21/0/21 22/0/22
f 17/0/17 15/0/15 23/0/23
f 17/0/17 23/0/23 24/0/24
f 19/0/19 17/0/17 24/0/24
f 24/0/24 23/0/23 25/0/25
f 24/0/24 25/0/25 26/0/26
f 25/0/25 23/0/23 27/0/27
f 15/0/15 14/0/14 27/0/27
f 15/0/15 27/0/27 23/0/23
f 25/0/25 27/0/27 28/0/28
f 29/0/29 24/0/24 26/0/26
f 29/0/29 30/0/30 24/0/24
f 21/0/21 19/0/19 30/0/30
f 19/0/19 24/0/24 30/0/30
f 31/0/31 30/0/30 29/0/29
f 21/0/21 30/0/30 31/0/31
f 31/0/31 29/0/29 32/0/32
f 31/0/31 33/0/33 21/0/21
f 34/0/34 35/0/35 33/0/33
f 14/0/14 36/0/36 27/0/27
f 37/0/37 38/0/38 39/0/39
f 37/0/37 39/0/39 40/0/40
f 40/0/40 39/0/39 41/0/41
f 40/0/40 41/0/41 42/0/42
f 41/0/41 43/0/43 42/0/42
f 42/0/42 43/0/43 44/0/44
f 42/0/42 44/0/44 45/0/45
f 45/0/45 40/0/40 42/0/42
f 41/0/41 46/0/46 43/0/43
f 47/0/47 46/0/46 41/0/41
f 47/0/47 48/0/48 46/0/46
f 43/0/43 46/0/46 49/0/49
f 49/0/49 46/0/46 48/0/48
f 43/0/43 49/0/49 50/0/50
f 49/0/49 51/0/51 50/0/50
f 49/0/49 52/0/52 51/0/51
f 50/0/50 51/0/51 53/0/53
f 50/0/50 53/0/53 54/0/54
f 54/0/54 44/0/44 43/0/43
f 54/0/54 43/0/43 50/0/50
f 55/0/55 44/0/44 54/0/54
f 45/0/45 44/0/44 55/0/55
f 55/0/55 54/0/54 56/0/56
f 51/0/51 52/0/52 57/0/57
f 51/0/51 57/0/57 58/0/58
f 57/0/57 52/0/52 59/0/59
f 57/0/57 59/0/59 60/0/60
f 61/0/61 53/0/53 51/0/51
f 61/0/61 51/0/51 58/0/58
f 62/0/62 53/0/53 61/0/61
f 54/0/54 53/0/53 62/0/62
f 54/0/54 62/0/62 56/0/56
f 62/0/62 61/0/61 63/0/63
f 49/0/49 48/0/48 64/0/64
f 52/0/52 49/0/49 64/0/64
f 52/0/52 64/0/64 59/0/59
f 45/0/45 55/0/55 65/0/65
f 66/0/66 45/0/45 65/0/65
f 66/0/66 67/0/67 45/0/45
f 68/0/68 67/0/67 66/0/66
f 45/0/45 67/0/67 40/0/40
f 67/0/67 68/0/68 37/0/37
f 67/0/67 37/0/37 40/0/40
f 69/0/69 70/0/70 71/0/71
f 69/0/69 71/0/71 72/0/72
f 73/0/73 71/0/71 70/0/70
f 73/0/73 70/0/70 74/0/74
f 74/0/74 75/0/75 73/0/73
f 74/0/74 76/0/76 75/0/75
f 77/0/77 75/0/75 76/0/76
f 77/0/77 76/0/76 78/0/78
f 78/0/78 79/0/79 77/0/77
f 78/0/78 80/0/80 79/0/79
f 81/0/81 79/0/79 80/0/80
f 81/0/81 80/0/80 82/0/82
f 73/0/73 75/0/75 83/0/83
f 73/0/73 83/0/83 84/0/84
f 84/0/84 71/0/71 73/0/73
f 84/0/84 83/0/83 85/0/85
f 85/0/85 83/0/83 86/0/86
f 86/0/86 83/0/83 75/0/75
f 86/0/86 75/0/75 77/0/77
f 85/0/85 86/0/86 87/0/87
f 84/0/84 85/0/85 88/0/88
f 89/0/89 84/0/84 88/0/88
f 89/0/89 90/0/90 84/0/84
f 91/0/91 90/0/90 89/0/89
f 91/0/91 89/0/89 92/0/92
f 86/0/86 93/0/93 87/0/87
f 86/0/86 94/0/94 93/0/93
f 93/0/93 94/0/94 95/0/95
f 93/0/93 95/0/95 96/0/96
f 77/0/77 94/0/94 86/0/86
f 77/0/77 79/0/79 94/0/94
f 84/0/84 90/0/90 71/0/71
f 97/0/97 90/0/90 98/0/98
f 97/0/97 99/0/99 100/0/100
f 101/0/101 102/0/102 103/0/103
f 101/0/101 103/0/103 104/0/104
f 103/0/103 102/0/102 105/0/105
f 103/0/103 105/0/105 106/0/106
f 105/0/105 107/0/107 106/0/106
f 106/0/106 107/0/107 108/0/108
f 106/0/106 108/0/108 109/0/109
f 109/0/109 103/0/103 106/0/106
f 105/0/105 110/0/110 107/0/107
f 111/0/111 110/0/110 105/0/105
f 111/0/111 112/0/112 110/0/110
f 107/0/107 110/0/110 113/0/113
f 113/0/113 110/0/110 112/0/112
f 107/0/107 113/0/113 114/0/114
f 109/0/109 108/0/108 115/0/115
f 115/0/115 108/0/108 116/0/116
f 116/0/116 108/0/108 107/0/107
f 116/0/116 107/0/107 114/0/114
f 114/0/114 117/0/117 116/0/116
f 114/0/114 118/0/118 117/0/117
f 113/0/113 118/0/118 114/0/114
f 115/0/115 116/0/116 119/0/119
f 120/0/120 117/0/117 118/0/118
f 121/0/121 117/0/117 120/0/120
f 116/0/116 117/0/117 121/0/121
f 116/0/116 121/0/121 119/0/119
f 121/0/121 120/0/120 122/0/122
f 120/0/120 118/0/118 123/0/123
f 118/0/118 124/0/124 123/0/123
f 118/0/118 125/0/125 124/0/124
f 113/0/113 125/0/125 118/0/118
f 126/0/126 125/0/125 113/0/113
f 113/0/113 112/0/112 126/0/126
f 126/0/126 127/0/127 125/0/125
f 124/0/124 125/0/125 127/0/127
f 124/0/124 127/0/127 128/0/128
f 109/0/109 115/0/115 129/0/129
f 130/0/130 109/0/109 129/0/129
f 130/0/130 131/0/131 109/0/109
f 132/0/132 131/0/131 130/0/130
f 109/0/109 131/0/131 103/0/103
f 131/0/131 132/0/132 104/0/104
f 131/0/131 104/0/104 103/0/103
f 133/0/133 134/0/134 135/0/135
f 133/0/133 135/0/135 136/0/136
f 137/0/137 135/0/135 134/0/134
f 137/0/137 134/0/134 138/0/138
f 138/0/138 139/0/139 137/0/137
f 138/0/138 140/0/140 139/0/139
f 141/0/141 139/0/139 140/0/140
f 141/0/141 140/0/140 142/0/142
f 142/0/142 143/0/143 141/0/141
f 142/0/142 144/0/144 143/0/143
f 145/0/145 143/0/143 144/0/144
f 145/0/145 144/0/144 146/0/146
f 137/0/137 139/0/139 147/0/147
f 137/0/137 147/0/147 148/0/148
f 148/0/148 135/0/135 137/0/137
f 148/0/148 147/0/147 149/0/149
f 149/0/149 147/0/147 150/0/150
f 150/0/150 147/0/147 139/0/139
f 150/0/150 139/0/139 141/0/141
f 149/0/149 150/0/150 151/0/151
f 148/0/148 149/0/149 152/0/152
f 153/0/153 148/0/148 152/0/152
f 153/0/153 154/0/154 148/0/148
f 155/0/155 154/0/154 153/0/153
f 155/0/155 153/0/153 156/0/156
f 150/0/150 157/0/157 151/0/151
f 150/0/150 158/0/158 157/0/157
f 157/0/157 158/0/158 159/0/159
f 157/0/157 159/0/159 160/0/160
f 141/0/141 158/0/158 150/0/150
f 141/0/141 143/0/143 158/0/158
f 148/0/148 154/0/154 135/0/135
f 41/0/41 39/0/39 161/0/161
f 41/0/41 161/0/161 47/0/47
f 39/0/39 38/0/38 161/0/161
f 105/0/105 102/0/102 162/0/162
f 105/0/105 162/0/162 111/0/111
f 102/0/102 101/0/101 162/0/162
f 163/0/163 164/0/164 165/0/165
f 163/0/163 165/0/165 166/0/166
f 167/0/167 168/0/168 169/0/169
