# 
# Wavefront OBJ file
# Created with Kaydara FBX
# 
mtllib helixspinner.mtl

g HelixSpinner
v -0.074113 -0.016123 -0.009714
v -0.123789 -0.000377 0.003579
v -0.074811 -0.002441 -0.013393
v -0.122909 -0.017623 0.008215
v -0.071600 -0.028026 -0.006465
v -0.118930 -0.036453 0.013363
v -0.067200 -0.039533 -0.003188
v -0.112040 -0.054463 0.018500
v -0.060972 -0.050349 0.000118
v -0.102399 -0.071200 0.023622
v -0.053025 -0.060184 0.003452
v -0.090240 -0.086241 0.028730
v -0.043511 -0.068767 0.006818
v -0.075862 -0.099206 0.033821
v -0.032624 -0.075850 0.010214
v -0.059620 -0.109769 0.038894
v -0.020601 -0.081213 0.013643
v -0.041916 -0.117661 0.043948
v -0.007711 -0.084676 0.017104
v -0.023193 -0.122686 0.048981
v 0.005746 -0.086097 0.020599
v -0.003917 -0.124717 0.053993
v 0.019448 -0.085385 0.024129
v 0.015432 -0.123706 0.058981
v 0.033058 -0.082496 0.027692
v 0.034371 -0.119681 0.063946
v 0.046230 -0.077443 0.031292
v 0.052430 -0.112747 0.068886
v 0.058619 -0.070291 0.034926
v 0.069162 -0.103083 0.073799
v 0.069892 -0.061162 0.038597
v 0.084153 -0.090935 0.078686
v 0.079733 -0.050231 0.042304
v 0.097038 -0.076614 0.083545
v 0.087852 -0.037722 0.046047
v 0.107502 -0.060482 0.088375
v 0.093997 -0.023908 0.049827
v 0.115296 -0.042946 0.093176
v 0.097957 -0.009102 0.053643
v 0.120238 -0.024448 0.097947
v 0.099573 0.006350 0.057496
v 0.122219 -0.005450 0.102687
v 0.098739 0.022075 0.061386
v 0.121204 0.013574 0.107396
v 0.095409 0.037682 0.065313
v 0.117234 0.032153 0.112073
v 0.089601 0.052774 0.069276
v 0.110425 0.049830 0.116717
v 0.081396 0.066954 0.073276
v 0.100962 0.066172 0.121330
v 0.070939 0.079841 0.077312
v 0.089096 0.080785 0.125909
v 0.058435 0.091073 0.081383
v 0.075136 0.093318 0.130455
v 0.044147 0.100326 0.085491
v 0.059440 0.103476 0.134967
v 0.028394 0.107315 0.089633
v 0.042410 0.111025 0.139446
v 0.011536 0.111806 0.093811
v 0.024474 0.115797 0.143891
v -0.006028 0.113625 0.098022
v 0.006081 0.117696 0.148302
v -0.023869 0.112660 0.102268
v -0.012311 0.116696 0.152679
v -0.041544 0.108871 0.106547
v -0.030249 0.112845 0.157022
v -0.058602 0.102287 0.110859
v -0.047294 0.106260 0.161332
v -0.074598 0.093011 0.115203
v -0.063036 0.097125 0.165607
v -0.089104 0.081216 0.119579
v -0.077095 0.085686 0.169849
v -0.101720 0.067145 0.123986
v -0.089141 0.072243 0.174057
v -0.112087 0.051103 0.128422
v -0.098894 0.057143 0.178232
v -0.119896 0.033455 0.132889
v -0.106132 0.040770 0.182374
v -0.124896 0.014612 0.137384
v -0.110700 0.023538 0.186484
v -0.126906 -0.004975 0.141907
v -0.112507 0.005877 0.190561
v -0.125814 -0.024826 0.146458
v -0.111531 -0.011776 0.194606
v -0.121589 -0.044446 0.151035
v -0.107820 -0.028988 0.198620
v -0.114278 -0.063337 0.155637
v -0.101486 -0.045340 0.202603
v -0.104008 -0.081009 0.160265
v -0.092706 -0.060438 0.206555
v -0.090984 -0.096995 0.164916
v -0.081715 -0.073923 0.210477
v -0.076422 -0.110025 0.169306
v -0.068401 -0.085836 0.214491
vt 0.962206 0.025534
vt 0.981270 0.975163
vt 0.978689 0.025530
vt 0.963015 0.975166
vt 0.943558 0.025533
vt 0.945791 0.975166
vt 0.927605 0.025535
vt 0.928694 0.975166
vt 0.912615 0.025534
vt 0.912915 0.975166
vt 0.898519 0.025534
vt 0.897822 0.975166
vt 0.883621 0.025532
vt 0.880937 0.975164
vt 0.867913 0.025533
vt 0.864554 0.975164
vt 0.850625 0.025532
vt 0.847551 0.975164
vt 0.833514 0.025531
vt 0.831245 0.975162
vt 0.815873 0.025530
vt 0.814513 0.975161
vt 0.797775 0.025530
vt 0.797147 0.975161
vt 0.779227 0.025530
vt 0.779045 0.975161
vt 0.760185 0.025530
vt 0.760191 0.975161
vt 0.740596 0.025530
vt 0.740618 0.975162
vt 0.720426 0.025530
vt 0.720383 0.975162
vt 0.699678 0.025531
vt 0.699552 0.975162
vt 0.678388 0.025531
vt 0.678192 0.975162
vt 0.656622 0.025531
vt 0.656380 0.975162
vt 0.634465 0.025531
vt 0.634197 0.975162
vt 0.612010 0.025531
vt 0.611729 0.975162
vt 0.589351 0.025531
vt 0.589066 0.975162
vt 0.566579 0.025531
vt 0.566293 0.975162
vt 0.543771 0.025531
vt 0.543486 0.975162
vt 0.520989 0.025531
vt 0.520705 0.975162
vt 0.498276 0.025531
vt 0.497993 0.975162
vt 0.475653 0.025531
vt 0.475371 0.975162
vt 0.453122 0.025531
vt 0.452839 0.975162
vt 0.430662 0.025531
vt 0.430379 0.975162
vt 0.408240 0.025531
vt 0.407955 0.975162
vt 0.385810 0.025531
vt 0.385520 0.975162
vt 0.363322 0.025531
vt 0.363022 0.975162
vt 0.340728 0.025531
vt 0.340413 0.975162
vt 0.317989 0.025531
vt 0.317651 0.975162
vt 0.295083 0.025531
vt 0.294710 0.975162
vt 0.272006 0.025531
vt 0.271585 0.975162
vt 0.248778 0.025531
vt 0.248294 0.975162
vt 0.225442 0.025530
vt 0.224884 0.975162
vt 0.202062 0.025530
vt 0.201429 0.975162
vt 0.178713 0.025530
vt 0.178033 0.975161
vt 0.155472 0.025530
vt 0.154829 0.975161
vt 0.132405 0.025529
vt 0.131977 0.975161
vt 0.109548 0.025529
vt 0.109656 0.975160
vt 0.086888 0.025529
vt 0.088047 0.975160
vt 0.064355 0.025530
vt 0.067294 0.975161
vt 0.044337 0.025530
vt 0.047442 0.975163
vt 0.023248 0.025528
vt 0.024516 0.975163
vn -0.322669 -0.286423 -0.902134
vn -0.325864 -0.260930 -0.908696
vn -0.325864 -0.260930 -0.908696
vn -0.322686 -0.286588 -0.902076
vn -0.311391 -0.339273 -0.887654
vn -0.311394 -0.339583 -0.887534
vn -0.290046 -0.394948 -0.871716
vn -0.290000 -0.395250 -0.871595
vn -0.257553 -0.451289 -0.854403
vn -0.257461 -0.451577 -0.854279
vn -0.213319 -0.505970 -0.835757
vn -0.213185 -0.506234 -0.835631
vn -0.157241 -0.556515 -0.815822
vn -0.157071 -0.556748 -0.815696
vn -0.089734 -0.600405 -0.794646
vn -0.089531 -0.600603 -0.794519
vn -0.011731 -0.635180 -0.772275
vn -0.011501 -0.635342 -0.772145
vn 0.075326 -0.658551 -0.748757
vn 0.075577 -0.658672 -0.748625
vn 0.169522 -0.668492 -0.724141
vn 0.169785 -0.668569 -0.724008
vn 0.268528 -0.663341 -0.698478
vn 0.268795 -0.663373 -0.698345
vn 0.369668 -0.641876 -0.671819
vn 0.369931 -0.641865 -0.671685
vn 0.470013 -0.603387 -0.644215
vn 0.470267 -0.603333 -0.644080
vn 0.566483 -0.547713 -0.615717
vn 0.566720 -0.547620 -0.615581
vn 0.655945 -0.475284 -0.586380
vn 0.656162 -0.475154 -0.586243
vn 0.735340 -0.387111 -0.556255
vn 0.735529 -0.386950 -0.556118
vn 0.801783 -0.284783 -0.525397
vn 0.801940 -0.284596 -0.525260
vn 0.852676 -0.170425 -0.493860
vn 0.852798 -0.170217 -0.493722
vn 0.885810 -0.046640 -0.461698
vn 0.885895 -0.046417 -0.461559
vn 0.899448 0.083567 -0.428963
vn 0.899493 0.083800 -0.428823
vn 0.892399 0.216878 -0.395711
vn 0.892405 0.217112 -0.395571
vn 0.864073 0.349769 -0.361995
vn 0.864039 0.349997 -0.361855
vn 0.814511 0.478618 -0.327868
vn 0.814440 0.478834 -0.327729
vn 0.744400 0.599829 -0.293385
vn 0.744295 0.600027 -0.293246
vn 0.655062 0.709944 -0.258599
vn 0.654927 0.710120 -0.258460
vn 0.548421 0.805763 -0.223561
vn 0.548260 0.805912 -0.223422
vn 0.426951 0.884447 -0.188324
vn 0.426768 0.884565 -0.188186
vn 0.293600 0.943614 -0.152940
vn 0.293402 0.943698 -0.152802
vn 0.151708 0.981421 -0.117459
vn 0.151501 0.981470 -0.117322
vn 0.004898 0.996626 -0.081931
vn 0.004688 0.996638 -0.081795
vn -0.143032 0.988630 -0.046406
vn -0.143240 0.988606 -0.046271
vn -0.288228 0.957499 -0.010933
vn -0.288428 0.957441 -0.010798
vn -0.426902 0.903968 0.024442
vn -0.427087 0.903876 0.024576
vn -0.555444 0.829410 0.059671
vn -0.555610 0.829289 0.059804
vn -0.670543 0.735800 0.094710
vn -0.670685 0.735654 0.094842
vn -0.769278 0.625650 0.129512
vn -0.769392 0.625483 0.129643
vn -0.849212 0.501927 0.164036
vn -0.849296 0.501743 0.164166
vn -0.908465 0.367959 0.198238
vn -0.908515 0.367764 0.198367
vn -0.945759 0.227331 0.232079
vn -0.945776 0.227132 0.232205
vn -0.960460 0.083772 0.265517
vn -0.960442 0.083575 0.265642
vn -0.952582 -0.058962 0.298515
vn -0.952532 -0.059152 0.298638
vn -0.922782 -0.197205 0.331034
vn -0.922700 -0.197384 0.331155
vn -0.872326 -0.327491 0.363039
vn -0.872215 -0.327653 0.363159
vn -0.803038 -0.446657 0.394496
vn -0.802902 -0.446797 0.394614
vn -0.717197 -0.551975 0.425385
vn -0.717116 -0.552037 0.425442
vn -0.668886 -0.599430 0.439630
vn -0.668886 -0.599430 0.439631
usemtl material
f 1/0/1 2/0/2 3/0/3
f 2/0/2 1/0/1 4/0/4
f 5/0/5 4/0/4 1/0/1
f 4/0/4 5/0/5 6/0/6
f 7/0/7 6/0/6 5/0/5
f 6/0/6 7/0/7 8/0/8
f 9/0/9 8/0/8 7/0/7
f 8/0/8 9/0/9 10/0/10
f 11/0/11 10/0/10 9/0/9
f 10/0/10 11/0/11 12/0/12
f 13/0/13 12/0/12 11/0/11
f 12/0/12 13/0/13 14/0/14
f 15/0/15 14/0/14 13/0/13
f 14/0/14 15/0/15 16/0/16
f 17/0/17 16/0/16 15/0/15
f 16/0/16 17/0/17 18/0/18
f 19/0/19 18/0/18 17/0/17
f 18/0/18 19/0/19 20/0/20
f 21/0/21 20/0/20 19/0/19
f 20/0/20 21/0/21 22/0/22
f 23/0/23 22/0/22 21/0/21
f 22/0/22 23/0/23 24/0/24
f 25/0/25 24/0/24 23/0/23
f 24/0/24 25/0/25 26/0/26
f 27/0/27 26/0/26 25/0/25
f 26/0/26 27/0/27 28/0/28
f 29/0/29 28/0/28 27/0/27
f 28/0/28 29/0/29 30/0/30
f 31/0/31 30/0/30 29/0/29
f 30/0/30 31/0/31 32/0/32
f 33/0/33 32/0/32 31/0/31
f 32/0/32 33/0/33 34/0/34
f 35/0/35 34/0/34 33/0/33
f 34/0/34 35/0/35 36/0/36
f 37/0/37 36/0/36 35/0/35
f 36/0/36 37/0/37 38/0/38
f 39/0/39 38/0/38 37/0/37
f 38/0/38 39/0/39 40/0/40
f 41/0/41 40/0/40 39/0/39
f 40/0/40 41/0/41 42/0/42
f 43/0/43 42/0/42 41/0/41
f 42/0/42 43/0/43 44/0/44
f 45/0/45 44/0/44 43/0/43
f 44/0/44 45/0/45 46/0/46
f 47/0/47 46/0/46 45/0/45
f 46/0/46 47/0/47 48/0/48
f 49/0/49 48/0/48 47/0/47
f 48/0/48 49/0/49 50/0/50
f 51/0/51 50/0/50 49/0/49
f 50/0/50 51/0/51 52/0/52
f 53/0/53 52/0/52 51/0/51
f 52/0/52 53/0/53 54/0/54
f 55/0/55 54/0/54 53/0/53
f 54/0/54 55/0/55 56/0/56
f 57/0/57 56/0/56 55/0/55
f 56/0/56 57/0/57 58/0/58
f 59/0/59 58/0/58 57/0/57
f 58/0/58 59/0/59 60/0/60
f 61/0/61 60/0/60 59/0/59
f 60/0/60 61/0/61 62/0/62
f 63/0/63 62/0/62 61/0/61
f 62/0/62 63/0/63 64/0/64
f 65/0/65 64/0/64 63/0/63
f 64/0/64 65/0/65 66/0/66
f 67/0/67 66/0/66 65/0/65
f 66/0/66 67/0/67 68/0/68
f 69/0/69 68/0/68 67/0/67
f 68/0/68 69/0/69 70/0/70
f 71/0/71 70/0/70 69/0/69
f 70/0/70 71/0/71 72/0/72
f 73/0/73 72/0/72 71/0/71
f 72/0/72 73/0/73 74/0/74
f 75/0/75 74/0/74 73/0/73
f 74/0/74 75/0/75 76/0/76
f 77/0/77 76/0/76 75/0/75
f 76/0/76 77/0/77 78/0/78
f 79/0/79 78/0/78 77/0/77
f 78/0/78 79/0/79 80/0/80
f 81/0/81 80/0/80 79/0/79
f 80/0/80 81/0/81 82/0/82
f 83/0/83 82/0/82 81/0/81
f 82/0/82 83/0/83 84/0/84
f 85/0/85 84/0/84 83/0/83
f 84/0/84 85/0/85 86/0/86
f 87/0/87 86/0/86 85/0/85
f 86/0/86 87/0/87 88/0/88
f 89/0/89 88/0/88 87/0/87
f 88/0/88 89/0/89 90/0/90
f 91/0/91 90/0/90 89/0/89
f 90/0/90 91/0/91 92/0/92
f 93/0/93 92/0/92 91/0/91
f 92/0/92 93/0/93 94/0/94
